# xmcd
#
# Track frame offsets:
#	150
#	19700
#	41214
#	60684
#	81778
#	101495
#	128412
#	148952
#	166424
#	184883
#	203018
#	221660
#	239404
#	261694
#	283176
#	301885
#
# Disc length: 4298 seconds
#
# Revision: 1
# Processed by: cddbd v1.5.1PL0 Copyright (c) Steve Scherf et al.
# Submitted via: CDex 1.50Beta5
#
DISCID=f210c810
DTITLE=門倉有希 - ノラ/門倉有希全曲集
DYEAR=2002
DGENRE=World
TTITLE0=ノラ
TTITLE1=姫女苑 (ひめじょおん)
TTITLE2=ひまわり
TTITLE3=捨て猫
TTITLE4=どん底
TTITLE5=どうせ東京の片隅に
TTITLE6=ナザレの舟唄
TTITLE7=…カモメ
TTITLE8=こぼれ花
TTITLE9=愛に疲れて〜ラブ・イズ・ブラインド〜
TTITLE10=幕間 -まくあい-
TTITLE11=哀愁エリア
TTITLE12=眠っちまった恋人は
TTITLE13=北の駅
TTITLE14=おんなの望郷歌
TTITLE15=女の漁歌
EXTD=
EXTT0=
EXTT1=
EXTT2=
EXTT3=
EXTT4=
EXTT5=
EXTT6=
EXTT7=
EXTT8=
EXTT9=
EXTT10=
EXTT11=
EXTT12=
EXTT13=
EXTT14=
EXTT15=
PLAYORDER=
